<?xml version="1.0" encoding="utf-8"?>
<!-- Generator: Adobe Illustrator 27.0.0, SVG Export Plug-In . SVG Version: 6.00 Build 0)  -->
<svg version="1.1" id="Layer_1" xmlns="http://www.w3.org/2000/svg" xmlns:xlink="http://www.w3.org/1999/xlink" x="0px" y="0px"
	 viewBox="0 0 300 300" style="enable-background:new 0 0 300 300;" xml:space="preserve">
<style type="text/css">
	.st0{fill:#E50712;}
	.st1{fill:#EC1C24;}
</style>
<g id="g4212_1_" transform="matrix(0.46147409,0,0,0.46147409,599.31782,-397.65877)">
	<path id="path4196_1_" class="st0" d="M-1067.9,1142.3l-19-18.6l-0.1,14.3c-0.1,13.1,0,14.4,0.5,15.4c0.4,0.7,2.1,2,4.8,3.6
		l4.2,2.5l-17.5,0c-11.5,0-17.3-0.1-17-0.4c0.3-0.2,2.1-1.3,4-2.4c5.5-3.3,5-0.4,5.1-26.9c0.1-12.5,0-23.6-0.1-24.7
		c-0.3-2.5-1.3-3.9-4.1-5.9l-2.2-1.5l-2.7,1.7c-1.6,1-2.9,2.2-3.3,2.8c-0.5,0.9-0.6,4.2-0.7,19.9l-0.2,18.9l-1,3
		c-2.5,7.5-8.8,13.2-17.1,15.3c-3.2,0.8-11,1.1-14.6,0.6c-8.3-1.3-16.2-6.7-19.2-13c-2.1-4.5-2.2-5.6-2.4-25.5
		c-0.2-21.4,0.3-19.3-5.4-22.9l-3.6-2.3l14,0.1c8.9,0.1,14.1,0.2,14.4,0.5c0.3,0.3,0,0.9-0.7,2l-1.1,1.6v18.5
		c0,20.6,0,20.9,2.4,23.7c1.7,2,4,2.9,7.5,2.8c4.7,0,7.2-1.5,8.8-5l0.9-1.9v-19v-19l-1.2-1.7l-1.2-1.7l0.9-0.4
		c0.7-0.3,7.1-0.4,22.4-0.4h21.5l0.9,1c0.5,0.5,6.4,6.4,13.2,13l12.4,12.1v-9.5c0-11.4,0.2-10.8-5.3-14.3l-3.6-2.3l17.2,0l17.2,0
		l-2.4,1.3c-1.3,0.7-3.2,1.8-4.1,2.4c-3.2,2-3-0.3-3.2,32.2l-0.2,28.8L-1067.9,1142.3L-1067.9,1142.3z"/>
	<path id="path4194_1_" class="st0" d="M-1014.1,1160.7c-2.7-0.4-7.2-1.7-10-3.1c-9.1-4.2-15.3-11.9-17.5-21.6
		c-0.9-4.1-0.8-11.3,0.2-15.5c3.2-13,13.4-22.2,27.1-24.3c3.4-0.5,10.2-0.5,14.5,0.2c3.8,0.6,11.5,2.2,11.8,2.5
		c0.1,0.1,0.6,3.8,1,8.2c0.5,4.4,0.9,8.8,1.1,9.7l0.2,1.8l-2.2-1.5c-2.8-1.9-8.4-4.5-11.4-5.3c-3.3-0.8-9.7-1.1-12.5-0.6
		c-6.8,1.3-10.9,5.7-12.3,13c-0.6,3.3-0.4,7.7,0.5,11.1c1.2,4.5,4.3,8,8.5,9.6c2.6,1,8.8,1.4,11.9,0.7l2.1-0.4l0-5.7
		c0-3.2-0.2-6.3-0.4-7c-0.5-1.7-1.6-2.7-5.7-5.1l-3.3-2l12.6-0.1c11.8-0.1,16.5,0.2,16.5,1c0,0.1-0.5,1-1.1,1.9l-1.1,1.6l0,11.3
		c0,10.5,0,11.4,0.7,12.7c0.4,0.8,0.9,1.5,1.1,1.7c0.7,0.4,0.4,0.9-0.6,1.3c-2.5,1-12.5,3.3-16.4,3.8
		C-1002.5,1160.9-1011.3,1161-1014.1,1160.7L-1014.1,1160.7z"/>
	<path id="path4192_1_" class="st0" d="M-810.1,1142.2l-19-18.6l-0.1,14.1c-0.1,12.5,0,14.3,0.5,15.4c0.5,1,1.5,1.8,4.9,3.8l4.3,2.6
		h-17.6c-14.8,0-17.4-0.1-16.8-0.5c0.4-0.3,2-1.2,3.5-2.1s3.1-1.9,3.6-2.3c1.9-1.7,1.9-1.4,1.9-26.3c0-12.7-0.2-23.8-0.3-24.6
		c-0.4-1.8-1.7-3.1-5.3-5.6l-2.9-2l10.2,0l10.2,0l13.2,13c7.3,7.1,13.3,12.9,13.5,12.7c0.4-0.4,0.3-15.1-0.1-17.5
		c-0.4-2.6-1-3.3-5.2-6c-1.8-1.1-3.2-2.1-3.2-2.2s7.6-0.1,16.9-0.1l16.9,0l-2.9,1.7c-3.6,2.1-5.1,3.2-6,4.5
		c-0.6,0.9-0.6,3.3-0.8,29.8l-0.2,28.8L-810.1,1142.2L-810.1,1142.2z"/>
	<path id="path4188_1_" class="st0" d="M-768.6,1159.8c-6-0.9-10.2-1.8-11.3-2.3l-0.9-0.4l-0.6-11.3c-0.3-6.2-0.6-11.4-0.5-11.5
		c0.1-0.1,2.5,1.7,5.4,3.8c8.1,6.2,11.9,7.8,17.8,7.8c5.2,0,7.1-1.3,7.1-5c0-1.6-0.2-1.9-1.6-3.2c-1.4-1.4-2.3-1.7-8.5-3.8
		c-11.9-3.9-16.4-6.6-18.9-11.3c-2.1-3.8-2.5-7.6-1.5-12.5c0.8-3.8,2.1-6.4,4.6-9.1c3.8-4,8.7-5.9,16.3-6.3
		c5.4-0.3,13.3,0.8,19.4,2.6l1.9,0.6l0.5,8.8c0.3,4.8,0.4,8.9,0.3,9s-1.2-0.4-2.3-1.1c-10.8-6.5-25-7.7-25-2c0,2.4,1.8,3.4,10.4,5.6
		c8.2,2.1,12.7,4.3,16.1,7.7c7.7,7.7,7.5,21.5-0.5,28.4C-746.9,1159.7-756.7,1161.6-768.6,1159.8L-768.6,1159.8z"/>
	<path id="path4178_1_" class="st0" d="M-886.6,1095.2c-3,0-6,0.3-9,0.9c-12.3,2.6-21.6,11.5-24.6,23.7c-0.6,2.6-0.8,4.2-0.8,8.3
		c0,6.2,0.7,9.3,3.4,14.7c4.4,8.9,13.7,15.4,24.7,17.1c0.6,0.1,3.7,0.1,7,0.1c6.7-0.1,9.6-0.7,14.6-3.1c9-4.2,14.6-10.6,17.6-19.8
		c1.3-4,1.7-11.8,0.8-15.9c-1.7-8.1-6.3-15-12.9-19.6C-871.9,1097.4-879.1,1095.2-886.6,1095.2L-886.6,1095.2z M-887.7,1110.5
		c0.5,0,1.1,0,1.6,0c3.6,0.1,4.2,0.3,6.7,1.5c6,2.8,9,8.1,9,15.6c0,8.5-4.4,15.1-11.3,17c-13.6,3.8-24.1-6.9-21.1-21.5
		c1-4.8,3.1-8.1,6.6-10.4C-893.7,1111.1-891.4,1110.5-887.7,1110.5z"/>
	<path id="path4174_1_" class="st0" d="M-1246.2,1092.6C-1246.2,1092.6-1246.3,1092.6-1246.2,1092.6c-0.4,0.4,0.9,4,2.3,6.3
		c1.5,2.6,2.5,3.6,5.5,6.1c4,3.3,3.7,0.9,3.7,25.8c0,25.4,0.6,22.5-5.3,26c-2.1,1.2-3.8,2.3-4,2.5c-0.4,0.4,32.8,0.2,37.2-0.2
		c8.1-0.7,13.1-2.7,19.2-7.6c6.7-5.4,10.5-14.1,10.6-23.7c0-2.6-0.2-5.5-0.5-7c-2.6-12-11.1-20.7-23.3-23.8
		c-1.9-0.5-5.6-0.7-18.5-0.9c-18.8-0.3-21.5-0.7-25.4-3C-1245.4,1092.8-1246,1092.6-1246.2,1092.6L-1246.2,1092.6z M-1217.4,1111.1
		l5.8,0.2c7.1,0.2,9.1,0.8,12,3.7c3,3,4.6,7.4,4.6,12.7c0,7.3-2.9,12.8-8.1,15.2c-2.2,1-2.6,1.1-8.3,1.2l-5.9,0.1v-16.5V1111.1
		L-1217.4,1111.1z"/>
	<path id="path4170_1_" class="st0" d="M-976.4,1156.9c3.5-2.1,4.4-2.8,4.9-3.8c0.4-1,0.5-5.2,0.4-25.7c-0.1-28.6,0.5-25.2-5.2-28.9
		l-3.6-2.3h24.9h24.9l0.2,1.2c0.4,2.3,1.7,17.5,1.6,17.8c-0.1,0.2-1.2-0.5-2.5-1.4c-1.3-1-3.1-2-3.9-2.2c-0.9-0.2-5.2-0.4-10.2-0.4
		h-8.6v4.2v4.2l9.2-0.1c8-0.1,9.4-0.2,10.4-0.8l1.2-0.7v9.6v9.6l-1.3-1.3l-1.3-1.3l-9.1-0.1l-9.1-0.1v4.8v4.8h9.5
		c5.6,0,10.3-0.2,11.4-0.4c1.3-0.3,3-1.1,5.3-2.7c1.9-1.3,3.3-2.1,3.3-1.9c-0.1,0.2-1.1,4.6-2.2,9.8c-1.1,5.1-2.1,9.6-2.2,10
		c-0.2,0.6-1.7,0.6-26.2,0.6h-26.1L-976.4,1156.9L-976.4,1156.9z"/>
</g>
<path id="path4190_1_" class="st0" d="M241.2,164.1l-8.7-8.5l0,6.6c0,6,0,6.6,0.3,7.1c0.2,0.3,1,0.9,2.1,1.6l1.8,1.1l-4,0
	c-2.2,0-5.8,0-7.9,0l-4,0l1.8-1.1c1-0.6,2-1.3,2.2-1.6c0.3-0.5,0.3-0.7,0.4-10.8c0-5.7,0-10.7-0.1-11.3c-0.1-1.4-0.5-1.9-2.3-3.2
	l-1.5-1l4.7,0l4.7,0l3.2,3.2c1.8,1.7,4.5,4.4,6.1,6l2.9,2.9v-4.4c0-5.3,0.1-5-2.4-6.6l-1.7-1.1l7.9,0l7.9,0l-1.1,0.6
	c-0.6,0.3-1.5,0.8-1.9,1.1c-1.5,0.9-1.4-0.2-1.5,14.8l-0.1,13.2L241.2,164.1L241.2,164.1z"/>
<path id="path4186_1_" class="st0" d="M173.2,172.3c-5.4-1-9.3-3.8-11.4-8.2c-2.3-4.8-1.9-10.6,1-15c2.1-3.2,5.4-5.3,9.6-6.3
	c1.7-0.4,5.9-0.4,8,0c1.9,0.3,4.8,1,4.9,1.1c0.1,0.1,1,8.8,1,8.9c0,0-0.7-0.4-1.5-0.9c-2.6-1.7-5.2-2.5-8.2-2.5
	c-1.6,0-2.1,0.1-3.1,0.4c-3.5,1.1-5.3,4.5-4.8,9.1c0.5,4.4,2.9,6.6,7.5,6.6c0.9,0,2-0.1,2.4-0.2l0.7-0.2l0-2.7c0-1.6-0.1-3-0.2-3.3
	c-0.2-0.5-0.5-0.8-1.7-1.6c-0.8-0.6-1.7-1.1-1.8-1.2c-0.2-0.2,1-0.2,6.1-0.2c4.4,0,6.5,0.1,6.6,0.2c0.1,0.1,0,0.4-0.3,1l-0.5,0.8
	l0,5.3l0,5.3l0.5,0.8l0.5,0.8l-1.9,0.5c-1,0.3-2.4,0.6-2.9,0.8C180.7,172.3,175.4,172.7,173.2,172.3L173.2,172.3z"/>
<path id="path4184_1_" class="st0" d="M205.7,142.6c-4.8,0-8.1,1.4-11.3,4.5c-1.4,1.4-1.8,1.9-2.5,3.2c-0.4,0.8-1,2.2-1.2,3
	c-0.4,1.4-0.5,1.7-0.5,4.3c0,2.5,0,2.9,0.5,4.3c1.8,5.9,6.7,9.8,13.3,10.5c1.6,0.2,3.4,0.1,5.2-0.3c3.3-0.6,6.1-2.1,8.4-4.5
	c1.9-2,2.9-3.8,3.6-6.4c0.3-1.1,0.4-1.8,0.4-3.9c0-2.2-0.1-2.7-0.5-4c-1.2-3.9-3.7-6.9-7.3-8.8C211.2,143.1,208.9,142.6,205.7,142.6
	L205.7,142.6z M205.8,149.5c3.9,0,6.6,2.1,7.5,5.8c1,4.3-1.1,8.6-4.7,9.9c-2,0.7-4.4,0.5-6.2-0.3c-2.4-1.2-3.9-3.9-3.9-7.2
	C198.4,152.5,201.2,149.5,205.8,149.5L205.8,149.5z"/>
<path id="path4180_1_" class="st0" d="M260.7,172.3c-2.2-0.3-4.3-0.7-5.3-1c-0.8-0.2-0.9-0.3-0.9-0.8c0-0.3-0.1-2.6-0.3-5
	c-0.1-2.5-0.2-4.6-0.2-4.8c0-0.2,0.7,0.2,2.3,1.4c3.8,2.9,5.6,3.7,8.1,3.7c2.4,0,3.3-0.5,3.5-1.9c0.2-1.7-0.8-2.4-4.9-3.7
	c-3-1-5.6-2.1-6.7-3c-1.6-1.3-2.7-3.5-2.7-5.8c0-4.4,2.5-7.6,6.8-8.7c1.6-0.4,4.7-0.5,6.9-0.2c2.3,0.3,5.5,1.1,5.7,1.3
	c0.1,0.1,0.5,5.6,0.6,7.9l0,0.5l-0.5-0.3c-0.8-0.6-3.5-1.9-4.8-2.3c-4.3-1.4-8.3-0.6-7.3,1.5c0.3,0.7,1.2,1.1,4.7,2
	c3.7,1,5.6,1.8,7.2,3.4c2.3,2.2,3.3,5.4,2.6,8.5c-0.8,3.7-3.3,6-7.5,7.1C266.3,172.5,262.9,172.6,260.7,172.3L260.7,172.3z"/>
<path id="path4164_1_" class="st0" d="M138.8,143l1.1,1.1c0.8,0.7,1.1,1.2,1.1,1.5c0,0.5-8.8,21.6-9,21.6c-0.2,0-2.9-3.2-5.2-6.4
	c-1.6-2.1-1.7-2.3-1.5-2.5c0.2-0.1,0.8-0.7,1.4-1.3c1.1-1.1,1.9-2.4,2.2-3.7c0.2-0.9,0.2-3,0-4c-0.5-2.1-2.2-4.2-4.1-5.1
	c-2.3-1.1-2.4-1.1-10.7-1.1c-4.2,0-8.1,0-8.6,0l-0.9,0.1l1.7,1c0.9,0.6,1.8,1.3,2,1.5c0.3,0.4,0.3,1,0.4,11.4c0,6,0,11.2,0,11.5
	c-0.2,0.8-0.8,1.5-2.7,2.6v0l-1.7,1l8.3,0l8.3,0l-1.4-0.8c-1.9-1-2.5-1.5-2.8-2.1c-0.4-0.7-0.5-8.1-0.2-8.1c0.7,0,1.1,0.4,8.2,9.1
	l1.6,2l7.9,0l7.9,0l-0.8-0.7c-2-1.7-2.1-1.9-1.4-3.6l0.4-0.9h5.3h5.3l0.4,1c0.2,0.6,0.3,1.2,0.3,1.5c-0.1,0.2-0.6,1-1.2,1.6
	l-1.1,1.1h7.4c4.1,0,7.4,0,7.4-0.1c0,0-0.7-0.7-1.7-1.4c-0.9-0.7-1.9-1.7-2.2-2.1c-0.3-0.4-2.7-6.3-5.4-13.1L150,143l-5.6,0
	L138.8,143L138.8,143z M116.4,148.7h1.4c1.1,0,1.5,0.1,2.1,0.4c1.1,0.6,1.4,1.1,1.4,2.4c0,2.1-0.8,3.5-2.2,3.9
	c-0.7,0.2-2.4,0.3-2.6,0.1c-0.1-0.1-0.1-1.6-0.1-3.4L116.4,148.7L116.4,148.7z M145.8,152.9C145.8,152.9,145.9,152.9,145.8,152.9
	c0.2,0.1,2.7,6.9,2.7,7.1c0,0.1-1.2,0.1-2.8,0.1S143,160,143,160C143,159.8,145.7,153,145.8,152.9
	C145.8,152.9,145.8,152.9,145.8,152.9L145.8,152.9z"/>
<path class="st1" d="M83.3,160.8c-6.2,0.3-11.4,5.5-14.2,9.1c0.5,0.2,1,0.4,1.5,0.8c0.6,0.5,1.4,1.1,2.3,1.9
	c0.7-1.6,2.4-4.8,4.9-7.7c2.3-2.6,6.5-2.9,8.6-1.3c1.4-1.2,5.8-2.3,8.3-1.6c-1.5-1.6-4.7-3.8-8.2-3.8c-2.9,0-4.5,1.4-4.9,0.8
	c-0.5-0.8,2-2,2-2c-3.4,0.1-5.9,4.1-6.9,3.6c-0.6-0.3,0.9-2.2,0.9-2.2c-3.1,1.8-5.7,5.6-6.3,7.9C74.1,162.8,79.6,160.3,83.3,160.8z"
	/>
<path class="st1" d="M45.5,149.8c-0.4-4.6,1.7-7.1,2.7-8.1c2.1-2.2,5-3.5,9.3-3.3c6.7,0.4,9.9,5,9.9,10.1c0,2.4-1.2,5.7-2.9,8
	c-0.1-0.1-0.2-0.2-0.3-0.3c-0.3-0.3-0.7-0.7-1.1-1c-1.1-1-2.3-2.2-3.2-3.4c1.8-3.4,0.8-8.2-3.1-8.2c-2.3,0-4.2,2.1-4,4.9
	c-0.6,1.3-0.9,3.3-0.8,5c-1.1-0.7-2.1-1.5-2.5-2.6l-1.4-3.5l-1.1,3.6c-0.3,0.9-0.3,1.8-0.2,2.7c0,0,0,0,0,0
	C46.3,152.8,45.7,151.6,45.5,149.8"/>
<path class="st1" d="M68.9,163.2c-0.2,0.5-1,1.4-1.7,1.6c0.1-0.9-0.6-1.4-1.1-1.5c0.3-1.7-0.4-3.8-2.8-6.1c-2-2-5.8-4.8-5.7-8.4
	c-0.6,0.8-1,3-0.5,4.3c1.7,2,5.2,4.1,6.1,7.4c-1.6-3.9-9.1-6.9-8.7-12.3c-0.9,1-1.5,4.7-0.7,6.8c1.4,0.9,2.7,2.4,2.9,3.7
	c-1.3-3.1-6.8-3.7-8.3-7.4c-0.4,1.3-0.2,3,0.6,4.1c0,0-1.4-0.5-4.2-0.4c0.8,0.3,2.8,2.1,2.5,3.2c-0.3,1.1-4.2,2.3-6.1,4.2
	c2.8-0.6,4.3-0.1,4.7,1.1c0.3,0.8-0.1,2-0.3,3.4c1-1.1,4.2-3.3,6.6-3.8c-0.6-0.2-2-0.5-2.5-0.5c1.7-2.1,5.6-2.8,7.6-2.2
	c-1.4-0.1-4,0.6-5.1,1.5c0.9,0.2,1.8,0.4,2.5,0.7c-1.3,0.5-2.9,2-3.4,3.7c1.7-1.2,5-0.9,5.5,1.6c0.4,1.7-0.8,3.1-1.3,3.4
	c0.5,0.1,1.7,0,2.1-0.3c-0.2,0.7-1.2,1.8-1.8,2c1.8,0,4.3-1.1,4.9-2.8c0,0-1,0.3-1.5-0.1c-0.5-0.5,0.2-2.6,0.2-2.6s-0.7,0.9-1.2,0.4
	c-0.6-0.6,0.2-2.5,0.5-3c-0.5-0.2-2.1-0.4-2.7-0.3c1.9-0.7,6.2-1.1,6.7-0.2c0.4,0.7-0.6,2.1-0.6,2.1c0.7-0.1,2.9,0,3.7,0.9
	c0.8,1,0.3,2.2,0.3,2.2C67.7,168.7,69.3,165.9,68.9,163.2z M60.2,160c1.9,0.7,2.5,2.6,2.5,2.6C61.1,162.6,60.6,161.4,60.2,160z"/>
<path class="st1" d="M92.2,181.5c0-3.9-3.8-7-8-6.6c1.2,0.2,2.9,1.5,2.9,3.4c0,3.1-3.8,4-5.9,3.5c2.2-1.6,1.9-6-0.7-7.6
	c0.9,2.5-1.8,5-4.4,2.8c-1.5-1.2-4.8-4.1-6.3-5.3c-1.5-1.2-3.3-0.5-4-1.1c-0.8-0.6-0.3-2.3-1.4-3c-0.9-0.5-1.8-0.2-2.9-0.6
	c-1-0.3-1.7-1.1-1.5-2.1c-0.4,0.7-0.4,2,0.3,2.9c0.7,0.8,1.9,1.4,2.4,2.3c0.6,1.2-0.4,2.9,2.4,5.2c1.4,1.1,3.5,2.9,4.9,4.1
	c2.3,2.1,1.1,4.7,1.4,6.9c0.4,2.6,2.4,4.1,3.8,4.5c-1.2-1.1-1.7-3.9,0-5.6c0.1,2.2,1.7,5.7,5.2,6.6c3.8,1,7.8-1.2,8.7-2.7
	c-1.5,0.7-4.2-0.1-5.4-1.1C88.2,188.7,92.2,185.5,92.2,181.5z"/>
<path class="st1" d="M69.1,180.5c-1.2-1.1-3-2.6-4.3-3.6c-1.5,2.6-4.8,6.1-8,6.1c-6,0-9.1-8.7-2.3-15.8c-0.4-0.1-0.8-0.1-0.9-0.1
	c-0.6,0-1.1,0.2-1.5,0.4l-2.7,1.9l0.6-3.4c0.1-0.2,0.1-0.4,0.2-0.5c-1.5,0.8-3.1,1.9-3.6,2.5l-2.6,2.9l0.3-4.1
	c0.1-0.3,0.1-0.6,0.2-0.9c0.1-0.7,0.3-1.5,0.2-1.8c0-0.1-0.1-0.2-0.2-0.2c-1.2,1-4.7,4.1-5.1,8.6c0,0,0.7-1,1.2-1.2
	c0.4-0.1,0.7,0,0.3,1.2c-0.1,0.4-3.4,9.5,3.1,15.8c0,0-0.7-1.9-0.3-2.4c0.2-0.3,0.5-0.3,0.9,0.2c0.3,0.4,0.6,0.7,0.9,1.1l0,0
	c0.5,0.6,1.1,1.2,1.8,1.7c1.9,1.4,4.6,2.5,7.6,2.5c8,0,12.3-5.6,14.7-10.4C69.3,180.7,69.2,180.6,69.1,180.5"/>
<path class="st0" d="M86.6,156l-3.1,0.1c-1.6,0.1-3,0.9-4.2,1.7c0-0.2,0-0.3,0-0.5l1.4-1.8l-1.4,0.8c0-8.9,0-8-1.7-9.5
	c-1.4-1.1-1.8-1.6-2.5-2.8c-0.6-1-1.2-2.7-1.1-2.9c0,0,0,0,0,0c0.1,0,0.4,0.1,0.6,0.3c1.8,1.1,3.1,1.2,11.7,1.4
	c6,0.1,7.7,0.2,8.5,0.4c5.6,1.4,9.6,5.4,10.7,11c0.2,0.7,0.3,2,0.3,3.2c0,4.4-1.8,8.5-4.9,10.9c-2.8,2.3-5.1,3.2-8.8,3.5
	c-2.1,0.2-17.3,0.2-17.2,0.1c0.1-0.1,0.9-0.6,1.8-1.1c2.1-1.3,2.4-0.7,2.4-6.2c1-0.7,2.3-1.2,3.6-1.2c0,0,2.5,0.1,3.8,1.6l3.3-0.1
	c2.6-0.1,2.8-0.1,3.8-0.5c2.4-1.1,3.8-3.6,3.7-7c0-2.5-0.7-4.5-2.1-5.9c-1.3-1.3-2.3-1.6-5.5-1.7l-2.7-0.1v7.6v0.1
	c-0.3,0-0.6,0-0.9,0c-1.2,0-1.8,0.1-2.5,0.3C83.9,157.7,84.9,156.5,86.6,156z"/>
<path class="st0" d="M90,155.8"/>
</svg>
